<?xml version="1.0" standalone="no"?>
<!DOCTYPE svg PUBLIC "-//W3C//DTD SVG 20010904//EN"
 "http://www.w3.org/TR/2001/REC-SVG-20010904/DTD/svg10.dtd">
<svg version="1.0" xmlns="http://www.w3.org/2000/svg"
 width="219.000000pt" height="219.000000pt" viewBox="0 0 219.000000 219.000000"
 preserveAspectRatio="xMidYMid meet">
<metadata>
Created by potrace 1.11, written by Peter Selinger 2001-2013
</metadata>
<g transform="translate(0.000000,219.000000) scale(0.100000,-0.100000)"
fill="#000000" stroke="none">
<path d="M1717 2146 c-20 -19 -37 -41 -37 -47 0 -6 -14 1 -31 15 -17 14 -36
26 -42 27 -7 0 -19 2 -29 4 -25 5 -77 -32 -89 -61 -10 -27 -17 -58 -18 -82 -1
-8 -9 -10 -26 -6 -64 16 -103 -29 -92 -107 5 -39 5 -40 -24 -35 -19 3 -37 -2
-51 -14 -25 -20 -29 -66 -14 -167 13 -91 10 -177 -9 -236 -23 -73 -41 -90 -50
-47 -11 48 -7 85 18 209 21 100 22 121 12 176 -21 110 -69 170 -117 144 -12
-7 -18 -6 -18 1 0 18 -64 51 -95 48 -16 -1 -44 6 -62 15 -62 33 -177 11 -203
-38 -7 -14 -10 -39 -7 -59 4 -25 1 -36 -9 -40 -21 -8 -36 -56 -29 -92 6 -34
59 -94 83 -94 7 0 12 -3 10 -7 -38 -74 -40 -85 -20 -112 10 -14 37 -33 60 -40
37 -14 40 -18 35 -42 -4 -21 1 -34 22 -55 24 -24 32 -26 76 -21 45 6 51 4 84
-27 38 -37 44 -68 19 -104 -24 -34 -54 -27 -134 33 -154 115 -245 131 -324 57
-29 -28 -54 -77 -125 -247 -23 -55 -50 -118 -60 -140 -10 -22 -79 -182 -152
-355 l-134 -315 0 -81 c0 -73 3 -84 28 -117 15 -20 42 -44 59 -53 43 -22 139
-15 202 15 46 23 284 202 631 476 363 286 377 300 377 370 0 71 -48 123 -173
186 -84 42 -110 47 -128 25 -20 -24 0 -45 83 -87 84 -41 146 -95 146 -127 0
-29 -32 -57 -480 -408 -231 -181 -386 -300 -432 -332 -94 -65 -170 -74 -217
-28 -46 47 -30 133 63 341 8 17 89 206 180 420 107 252 174 396 189 408 45 37
104 17 236 -79 40 -30 82 -55 92 -55 68 -5 87 0 115 28 14 14 32 40 40 57 11
25 13 27 14 10 0 -28 24 -47 48 -40 13 4 22 1 26 -9 8 -23 69 -19 198 14 134
34 203 66 246 115 30 34 72 49 72 25 0 -8 20 -9 65 -4 l65 7 -9 -25 c-8 -20
-6 -29 11 -44 11 -10 22 -17 24 -15 2 1 15 2 29 2 22 0 24 -3 16 -19 -12 -22
4 -49 34 -55 38 -8 73 -25 78 -38 3 -7 6 11 6 40 1 28 -3 52 -9 52 -5 0 -10
11 -10 23 0 25 -28 57 -48 57 -7 0 -23 18 -37 40 -27 42 -49 52 -125 55 -74 4
-77 5 -48 20 31 17 41 43 33 78 -6 21 -2 25 22 30 69 14 107 92 63 132 -11 10
-20 21 -20 24 0 3 20 14 45 25 84 34 113 112 59 155 -15 12 -33 21 -41 21 -11
0 -10 5 4 26 22 34 22 113 0 147 -32 49 -80 77 -143 83 -59 6 -61 6 -97 -30z
m158 -72 c32 -29 34 -77 4 -102 -42 -34 -59 -57 -54 -70 3 -7 5 -17 5 -22 0
-12 40 -25 88 -28 36 -3 25 -22 -25 -43 -27 -11 -65 -27 -85 -36 -50 -21 -78
-49 -78 -78 0 -31 26 -45 82 -45 67 -1 23 -19 -57 -24 -36 -3 -73 -10 -81 -16
-25 -21 -17 -58 17 -79 24 -15 27 -20 14 -25 -9 -3 -31 -6 -49 -6 -95 0 -221
-62 -335 -165 l-53 -49 27 55 c43 84 55 142 51 249 -2 52 -7 115 -11 140 l-8
45 45 -42 c76 -74 105 -54 78 52 -11 39 -19 84 -19 100 l0 30 17 -25 c37 -54
60 -72 82 -60 18 10 20 19 17 95 -4 83 10 145 32 145 12 0 51 -49 51 -63 0 -6
7 -18 16 -28 24 -27 52 -11 81 45 14 28 31 58 39 67 19 21 77 13 109 -17z
m-954 -167 c13 -10 42 -17 65 -17 35 0 46 -5 63 -27 38 -51 55 -64 81 -61 21
3 25 -1 28 -27 7 -89 7 -95 -23 -234 -8 -41 -14 -93 -11 -117 l4 -43 -36 35
c-40 39 -66 48 -117 42 -40 -5 -40 -5 -18 32 22 39 7 56 -63 70 -76 16 -67 33
29 54 20 5 27 12 27 30 0 30 -12 39 -80 60 -70 22 -100 42 -100 65 0 13 10 20
30 25 24 4 30 11 30 31 0 14 -7 39 -15 55 -14 28 -14 29 13 38 36 12 64 9 93
-11z m708 -509 c-23 -44 -64 -66 -180 -97 l-74 -20 40 35 c49 42 169 104 202
104 21 0 23 -2 12 -22z"/>
<path d="M1401 1168 c-11 -31 3 -67 45 -116 38 -44 85 -65 138 -61 25 3 42 -3
58 -19 33 -31 82 -38 113 -18 14 9 25 23 25 31 0 13 7 12 41 -5 76 -39 163
-31 175 16 4 15 18 27 40 34 32 11 34 14 34 55 l0 43 -27 -13 c-16 -7 -43 -16
-62 -19 -36 -5 -51 -19 -51 -48 0 -12 -8 -18 -23 -18 -29 0 -105 49 -113 72
-7 22 -41 33 -59 18 -9 -8 -15 -30 -15 -56 0 -24 -4 -44 -9 -44 -5 0 -26 20
-47 45 -41 51 -65 57 -82 20 -10 -22 -15 -24 -39 -14 -28 11 -48 33 -73 83
-19 40 -57 47 -69 14z"/>
</g>
</svg>
