<?xml version="1.0" encoding="UTF-8"?>
<svg width="50px" height="54px" viewBox="0 0 50 54" version="1.1" xmlns="http://www.w3.org/2000/svg" xmlns:xlink="http://www.w3.org/1999/xlink">
    <!-- Generator: Sketch 43.2 (39069) - http://www.bohemiancoding.com/sketch -->
    <title>Path 9</title>
    <desc>Created with Sketch.</desc>
    <defs></defs>
    <g id="Vaikutin" stroke="none" stroke-width="1" fill="none" fill-rule="evenodd" stroke-linecap="round" stroke-linejoin="round">
        <g id="Wecome-login" transform="translate(-124.000000, -428.000000)" stroke="#FFFFFF" stroke-width="1.5">
            <g id="Vaikutin-Logo" transform="translate(125.000000, 429.000000)">
                <path d="M24.7795141,26.2406877 C24.7795141,26.2406877 27.6285323,27.558287 28.8024602,28.3880484 C29.9763882,29.2178098 31.8135025,31.0972249 29.2262513,33.2675911 C26.6390002,35.4379573 8.980515,49.4714009 7.38034671,50.5149235 C5.78017841,51.5584462 3.21833849,52.4654396 1.67371477,51.2355993 C0.129091052,50.005759 0.0188534123,47.8090249 0.718600524,45.9811364 C1.41834764,44.1532479 10.0322745,23.6186647 10.7375532,22.0605636 C11.4428319,20.5024625 12.9674017,18.7122121 16.0475797,20.3863879 C19.1277577,22.0605636 19.9985641,24.058389 21.9528993,23.5813506 C23.2431535,23.2664094 24.8139329,20.8202312 22.5367585,18.8024285 C20.2595841,16.7846258 20.2420674,18.6084919 18.8456463,17.9399134 C17.4492251,17.2713349 19.1148507,15.6339352 19.1148507,15.6339352 C19.1148507,15.6339352 16.0733939,15.2618643 15.7304348,14.4335394 C15.3874757,13.6052146 16.8216961,12.359136 18.4064989,12.359136 C19.9913016,12.359136 15.0789355,11.7500313 14.3450769,10.0373556 C13.6112183,8.32467979 14.8124969,7.83854535 15.8247793,7.83854535 C15.1475082,6.1158136 14.3450769,5.58715676 15.952928,4.83640658 C17.560779,4.0856564 19.0352571,4.61373862 19.5699782,5.26594026 C20.1046994,5.91814191 21.4793014,4.17414896 22.9728328,6.76083241 C24.4663642,9.34751585 23.6544485,4.96742154 24.7795141,6.79559734 C25.9045796,8.62377314 25.4823343,9.30930316 25.4823343,9.30930316 C25.4823343,9.30930316 26.3926849,9.31361286 25.1545289,14.4335394 C23.916373,19.553466 25.6353751,18.8024285 25.6353751,22.2398472 C26.7217195,20.3863879 28.4386659,18.4180031 28.4386659,14.6745955 C28.4386659,10.9311879 27.3858185,9.00101577 28.1805247,8.22153424 C28.9752309,7.44205272 31.3067994,10.3559862 31.3067994,10.3559862 C31.3067994,10.3559862 29.6636075,5.50239927 30.6608317,4.61316399 C31.6580558,3.72392871 33.4137235,7.00878396 33.4137235,7.00878396 C33.4137235,7.00878396 32.572306,1.98826785 34.4038795,1.07777137 C36.2354529,0.167274884 37.3273289,3.57222718 37.3273289,3.57222718 C37.3273289,3.57222718 38.7105356,-0.373449124 40.37401,0.0287897766 C42.0374843,0.431028677 41.5712936,0.0330994791 42.7959278,0.943021335 C44.0205621,1.85294319 44.54422,4.17673478 42.459115,5.46878359 C40.37401,6.76083241 44.9793724,5.6880038 44.9793724,7.49865348 C44.9793724,9.30930316 40.9305502,9.57305695 39.8223867,10.726046 C38.7142233,11.8790351 41.4772564,10.9357849 42.3650778,11.6474604 C43.2528993,12.359136 42.3930431,13.7750169 39.860186,13.7750169 C37.3273289,13.7750169 37.3445383,14.2036886 39.2142183,14.9188119 C41.0838983,15.6339352 40.6309219,16.6800437 36.2704864,16.9768385 C31.9100508,17.2736334 27.3258929,22.8202205 27.3258929,22.8202205 C27.3258929,22.8202205 31.0924661,22.4159414 34.4038795,21.1013718 C37.7152929,19.7868022 36.6999374,18.4173207 37.7514156,18.3600816 C41.440684,18.1592494 39.8715565,18.8024285 39.8715565,18.8024285 C39.8715565,18.8024285 42.8795164,18.0114545 43.5749612,19.1989212 C44.2704059,20.3863879 42.9575734,20.4033393 42.9575734,20.4033393 C42.9575734,20.4033393 47.3361403,20.5343543 44.8976277,22.3375338 C48.1210126,22.8202205 48.2838874,24.5153702 47.7946483,25.5307361 C47.3054092,26.546102 45.429583,26.966729 44.7150849,26.966729 C44.0005869,26.966729 45.3960861,28.6236659 43.3921111,28.6236659 C41.3881362,28.6236659 39.6665801,26.9506394 39.4403992,26.2406877 C39.2142183,25.5307361 39.8036408,28.9612593 38.3814055,28.9612593 C36.9591703,28.9612593 35.8881915,26.6064378 35.8881915,26.6064378 C35.8881915,26.6064378 36.0083501,28.2820502 33.9592005,27.6243896 C31.9100508,26.966729 31.3971488,24.6506948 31.3971488,24.6506948" id="Path-9"></path>
            </g>
        </g>
    </g>
</svg>