<?xml version="1.0" encoding="UTF-8"?>
<svg width="132px" height="57px" viewBox="0 0 132 57" version="1.1" xmlns="http://www.w3.org/2000/svg" xmlns:xlink="http://www.w3.org/1999/xlink">
    <!-- Generator: Sketch 43.2 (39069) - http://www.bohemiancoding.com/sketch -->
    <title>Group 2</title>
    <desc>Created with Sketch.</desc>
    <defs></defs>
    <g id="Final" stroke="none" stroke-width="1" fill="none" fill-rule="evenodd">
        <g id="1-copy" transform="translate(-638.000000, -386.000000)">
            <g id="Group-2" transform="translate(639.000000, 387.000000)">
                <g id="CarotLines-Copy-15" stroke="#412504" stroke-width="2" stroke-linecap="round" stroke-linejoin="round">
                    <path d="M25.9541854,27.6189297 C25.9541854,27.6189297 28.9382611,29.0057334 30.1678391,29.8790764 C31.397417,30.7524195 33.3216196,32.7305473 30.61172,35.0149078 C27.9018203,37.2992683 9.40623576,52.0697917 7.73021158,53.1681234 C6.05418741,54.266455 3.37090362,55.2210866 1.75305712,53.9266512 C0.135210605,52.6322159 0.0197471571,50.3201026 0.752665737,48.3962077 C1.48558432,46.4723129 10.5078539,24.85919 11.2465663,23.2192526 C11.9852787,21.5793152 13.5821206,19.6950353 16.8083143,21.4571439 C20.0345079,23.2192526 20.9465948,25.3220099 22.9935751,24.819916 C24.3449937,24.4884331 25.9902358,21.9137741 23.6051121,19.7899902 C21.2199884,17.6662062 21.2016413,19.5858674 19.7390229,18.8821731 C18.2764046,18.1784787 20.020989,16.4550778 20.020989,16.4550778 C20.020989,16.4550778 16.8353521,16.0634645 16.4761351,15.1916335 C16.1169181,14.3198025 17.6191276,13.008276 19.2790578,13.008276 C20.938988,13.008276 15.7937515,12.3671793 15.0251044,10.5645485 C14.2564572,8.76191769 15.5146824,8.25024996 16.5749519,8.25024996 C15.8655748,6.43703502 15.0251044,5.88061149 16.7091755,5.09042959 C18.3932467,4.3002477 19.9376223,4.85606642 20.4976918,5.54252371 C21.0577614,6.228981 22.4975263,4.39338816 24.0618585,7.11593221 C25.6261906,9.83847626 24.7757862,5.22832586 25.9541854,7.1525231 C27.1325845,9.07672035 26.6903227,9.79825651 26.6903227,9.79825651 C26.6903227,9.79825651 27.6438284,9.80279258 26.3469778,15.1916335 C25.0501271,20.5804745 26.8506185,19.7899902 26.8506185,23.4079527 C27.9884609,21.4571439 29.7867991,19.3853735 29.7867991,15.4453505 C29.7867991,11.5053276 28.6840415,9.47377692 29.5164207,8.65335462 C30.3487999,7.83293231 32.7908962,10.8999146 32.7908962,10.8999146 C32.7908962,10.8999146 31.069809,5.79140228 32.1143065,4.85546161 C33.158804,3.91952095 34.9976989,7.37690694 34.9976989,7.37690694 C34.9976989,7.37690694 34.1163941,2.09269782 36.0347932,1.13437925 C37.9531923,0.176060677 39.0968286,3.75985158 39.0968286,3.75985158 C39.0968286,3.75985158 40.5456061,-0.393063826 42.2879374,0.0303019046 C44.0302686,0.453667635 43.5419781,0.034837966 44.8246661,0.992551729 C46.1073541,1.95026549 46.655836,4.3961098 44.4718867,5.756021 C42.2879374,7.11593221 47.1116167,5.98675533 47.1116167,7.89250592 C47.1116167,9.79825651 42.8708603,10.0758635 41.7101645,11.2894111 C40.5494687,12.5029587 43.4434831,11.5101661 44.3733917,12.259221 C45.3033003,13.008276 44.4026827,14.4985233 41.7497556,14.4985233 C39.0968286,14.4985233 39.1148538,14.9497102 41.0731659,15.702394 C43.031478,16.4550778 42.5570283,17.5561311 37.9898865,17.8685145 C33.4227448,18.180898 28.6212751,24.018809 28.6212751,24.018809 C28.6212751,24.018809 32.5664025,23.5932959 36.0347932,22.209681 C39.503184,20.8260662 38.4396957,19.3846553 39.5410191,19.3244098 C43.405177,19.1130293 41.7616651,19.7899902 41.7616651,19.7899902 C41.7616651,19.7899902 44.9122172,18.9574717 45.6406295,20.2073078 C46.3690418,21.4571439 44.9939745,21.4749858 44.9939745,21.4749858 C44.9939745,21.4749858 49.5801071,21.612882 47.0259969,23.5107701 C50.4021862,24.018809 50.5727821,25.8029931 50.0603506,26.8716892 C49.5479192,27.9403853 47.5831695,28.3831049 46.8348007,28.3831049 C46.086432,28.3831049 47.5480847,30.1270693 45.4491115,30.1270693 C43.3501382,30.1270693 41.5469718,28.3661702 41.3100688,27.6189297 C41.0731659,26.8716892 41.6905299,30.4823941 40.2008737,30.4823941 C38.7112175,30.4823941 37.589469,28.0038901 37.589469,28.0038901 C37.589469,28.0038901 37.7153237,29.7675108 35.5690342,29.0753078 C33.4227448,28.3831049 32.8855287,25.9454255 32.8855287,25.9454255" id="Path-9"></path>
                </g>
                <path d="M51.7227758,48.5319779 L51.7227758,51.0123356 C51.1391593,51.4014132 50.4777372,51.5959491 49.7384897,51.5959491 C48.6296184,51.5959491 47.5693976,51.080429 46.5577957,50.0493732 C45.2932933,52.7729168 43.7175525,54.1346682 41.8305258,54.1346682 C40.9551011,54.1346682 40.2644986,53.7650499 39.7586976,53.0258024 C39.2528967,52.2865548 39,51.2749681 39,49.9910118 C39,48.8237788 39.1167215,47.627383 39.3501681,46.4017884 C39.5836147,45.1761937 40.1295744,43.2332363 40.5770137,41.8714645 C40.5770137,41.8714645 41.8542151,42.1447188 42.4928158,42.2813459 C42.5930399,42.3027886 42.7805986,42.4468775 42.6587798,42.8214852 C42.239653,44.1103505 42.0635204,44.9680828 41.9764292,45.3512839 C41.5873515,46.9270485 41.3928156,48.3568874 41.3928156,49.6408437 C41.3928156,51.3138776 41.7429803,52.150382 42.4433201,52.150382 C42.9296671,52.150382 43.4354605,51.7904906 43.9607153,51.0706969 C44.4859702,50.3509033 44.97231,49.3684969 45.4197493,48.1234484 L45.3030266,47.2772087 C45.3030266,46.4795995 45.4829723,45.5409637 45.8428691,44.4612732 C46.2027659,43.3815827 46.5383404,42.773658 46.8496025,42.6374808 C47.2775879,42.442942 47.7639277,42.3456741 48.3086364,42.3456741 C48.6588063,42.3456741 48.8338887,42.5499368 48.8338887,42.9584683 C48.8338887,43.6393542 48.7074403,44.456405 48.4545398,45.4096453 C48.2016394,46.3628856 47.8514747,47.3161115 47.4040354,48.2693518 C48.2405524,49.222592 49.0089692,49.699205 49.709309,49.699205 C50.0789328,49.699205 50.4193706,49.6116639 50.7306328,49.4365789 C51.0418949,49.261494 51.3726059,48.9599633 51.7227758,48.5319779 Z M65.9564623,48.5319779 L65.9564623,50.999569 C63.6998119,53.0701917 61.9295351,54.1054875 60.6455789,54.1054875 C60.0425085,54.1054875 59.6388465,53.8792635 59.4345807,53.4268087 C59.2303149,52.974354 59.1281836,52.4402161 59.1281836,51.8243791 L59.1281836,51.333323 C58.1943972,52.3643788 57.4211169,53.0841617 56.8083196,53.4926932 C56.1955223,53.9012248 55.5973244,54.1054875 55.0137079,54.1054875 C54.1382832,54.1054875 53.3747297,53.6920987 52.7230246,52.8653086 C52.0713196,52.0385186 51.7454719,51.0609757 51.7454719,49.9326505 C51.7454719,47.8316311 52.406894,46.0127203 53.729758,44.4758636 C54.9553527,43.0557301 56.2879237,42.3456741 57.727511,42.3456741 C58.3111275,42.3456741 58.8412378,42.491576 59.317858,42.7833842 C59.7944781,43.0751925 60.2467741,43.5420787 60.6747595,44.1840568 L61.1708311,42.3456741 L63.5928274,42.3456741 L62.0754321,48.5027972 C61.9392549,48.9848888 61.8225334,49.5006369 61.725264,50.0500571 C61.6279945,50.5994773 61.5793606,50.9802662 61.5793606,51.1924351 C61.5793606,51.5587152 61.6960821,51.7418525 61.9295287,51.7418525 C62.2407908,51.7418525 62.7514476,51.4574957 63.4615143,50.8887736 C64.1715811,50.3200515 65.0032221,49.5344608 65.9564623,48.5319779 Z M59.6069291,48.8848817 L60.266686,45.9640782 C59.605254,45.1859229 59.1675482,44.7093099 58.9535554,44.5342249 C58.6422933,44.2813245 58.3115823,44.1548761 57.9614124,44.1548761 C57.027322,44.1548761 56.1858022,44.6849865 55.4368277,45.7452231 C54.6878532,46.8054597 54.3133716,47.9969922 54.3133716,49.3198562 C54.3133716,50.1563732 54.4498507,50.8323855 54.722813,51.3479134 C54.9957753,51.8634413 55.3564266,52.1212013 55.8047779,52.1212013 C56.3899142,52.1212013 57.0919153,51.6935263 57.9108021,50.8381634 C58.4761806,50.1967932 59.0415506,49.5457058 59.6069291,48.8848817 Z M73.4202314,48.5319779 L73.4202314,51.0123356 C72.66153,51.771037 71.756938,52.4616395 70.7064283,53.0841637 C69.4613798,53.8234113 68.4108859,54.1930295 67.5549151,54.1930295 C66.8351214,54.1930295 66.3585084,53.6872362 66.1250618,52.6756342 C66.0083385,52.1698333 65.9499777,51.372236 65.9499777,50.2828186 C65.9499777,49.2323089 66.1153333,48.0261863 66.4460493,46.6644145 C66.7767653,45.3026427 67.2339247,43.8825305 67.8175412,42.4040354 L70.2687182,42.4040354 L69.9769114,43.2794558 C69.373841,45.0886669 68.945862,46.5379594 68.6929615,47.6273769 C68.440061,48.7167943 68.3136127,49.6602935 68.3136127,50.4579027 C68.3136127,51.3916891 68.4984218,51.8585752 68.8680456,51.8585752 C69.3543927,51.8585752 70.288165,51.2749675 71.6693907,50.1077345 C72.2530072,49.6019336 72.836615,49.0766866 73.4202314,48.5319779 Z M70.0239445,37.144989 C70.9771848,37.144989 71.4537978,37.4173392 71.4537978,37.962048 C71.4537978,38.2733101 71.3759834,38.6672453 71.2203524,39.1438654 C71.0647213,39.6204856 70.8847756,39.9609234 70.6805098,40.1651892 C70.476244,40.369455 70.0920356,40.4715863 69.527873,40.4715863 C68.7886255,40.4715863 68.4190072,40.2284164 68.4190072,39.7420694 C68.4190072,39.0611835 68.5697726,38.4581221 68.8713077,37.9328673 C69.1728429,37.4076125 69.5570514,37.144989 70.0239445,37.144989 Z M76.0108272,54.0471261 L73.6763729,54.0471261 C73.5985574,53.4829635 73.5353332,52.7388637 73.4866985,51.8148042 C73.4380638,50.8907448 73.4137468,50.2536397 73.4137468,49.9034698 C73.4137468,47.9191737 73.7639115,45.6674205 74.4642513,43.1481427 C75.1645911,40.6288649 76.0497295,38.4354725 77.119693,36.5678997 C78.0923872,34.855958 79.1915151,34 80.4171097,34 C81.0201801,34 81.5065198,34.2383065 81.8761436,34.7149266 C82.2457674,35.1915468 82.4305765,35.8189251 82.4305765,36.5970804 C82.4305765,37.7059517 82.0415047,39.0190691 81.2633494,40.536472 C80.6991868,41.6064355 79.8432287,42.9487333 78.6954497,44.5634056 C77.8589327,45.7306386 77.0224283,46.8881273 76.1859113,48.0359064 L84.1180404,42.6666615 L85.3718977,43.9706731 L78.9042739,48.4512751 L80.5082993,50.6649031 C80.9554346,51.2473037 81.2276329,51.5869817 81.3249024,51.6839471 C81.5194412,51.878182 81.7235519,51.975298 81.9372407,51.975298 C82.3068644,51.975298 82.8902442,51.7224013 83.6873974,51.2166003 C84.4845507,50.7107994 85.4372447,49.9812897 86.5455081,49.0280494 L87.0994851,48.5319779 L87.0994851,51.0123356 C85.6133908,52.1601147 84.4107637,52.9723021 83.4915677,53.4489222 C82.5723718,53.9255424 81.7901246,54.1638488 81.1448029,54.1638488 C80.5581467,54.1638488 80.0301641,53.9012254 79.5608391,53.3759705 C79.3848423,53.1814317 79.0134003,52.6853651 78.446502,51.8877559 L75.8357432,48.3860745 L75.8357432,49.9910118 C75.8357432,50.5357205 75.8649235,51.2652302 75.9232852,52.1795627 C75.9816468,53.0938952 76.0108272,53.7164101 76.0108272,54.0471261 Z M76.1859113,45.3221033 C79.1429015,41.4118728 80.6213744,38.6105557 80.6213744,36.9180678 C80.6213744,36.6846213 80.5720565,36.4900853 80.4734193,36.3344543 C80.374782,36.1788232 80.2368591,36.1010089 80.0596464,36.1010089 C79.5076424,36.1010089 78.8866473,36.9472401 78.1966424,38.6397279 C77.4279101,40.5267545 76.7576731,42.7541907 76.1859113,45.3221033 Z M101.333172,48.5319779 L101.333172,51.0123356 C100.263208,52.0239375 99.2467579,52.8020811 98.2837907,53.3467898 C97.3208235,53.8914986 96.4600021,54.1638488 95.7013006,54.1638488 C95.1760458,54.1638488 94.8015642,53.8817718 94.5778445,53.3176092 C94.3541248,52.7534466 94.2422667,51.7904938 94.2422667,50.428722 C93.366842,51.5570472 92.437933,52.4616392 91.4555119,53.1425251 C90.4730908,53.823411 89.5928158,54.1638488 88.8146605,54.1638488 C87.7057892,54.1638488 87.1513618,52.8507314 87.1513618,50.2244572 C87.1513618,49.1934014 87.287537,48.0991369 87.5598913,46.9416309 C87.8322457,45.7841249 88.3185855,44.2716082 89.0189252,42.4040354 L91.4117409,42.4040354 C90.1472385,46.1780887 89.5149968,48.7848699 89.5149968,50.2244572 C89.5149968,50.8275276 89.5587674,51.2457798 89.6463098,51.4792264 C89.7338523,51.712673 89.8943444,51.8293946 90.127791,51.8293946 C90.4974148,51.8293946 91.0810225,51.4889567 91.8786317,50.8080708 C92.8124181,50.0104616 93.7267369,48.9502409 94.6216155,47.6273769 C95.0106932,45.8765274 95.4873062,44.135431 96.0514688,42.4040354 L98.4442844,42.4040354 L97.3354186,46.4017884 C97.101972,47.1993976 96.9074361,48.011585 96.751805,48.838375 C96.596174,49.665165 96.5183596,50.2828166 96.5183596,50.6913481 C96.5183596,51.4500495 96.6837151,51.8293946 97.0144312,51.8293946 C97.4035088,51.8293946 97.9579362,51.5521809 98.6777298,50.9977452 C99.3975235,50.4433096 100.282662,49.6213953 101.333172,48.5319779 Z M102.788426,42.6154136 C102.788426,42.6154136 103.979782,39.0280342 104.57546,37.2343446 C104.687998,36.8954736 104.984707,36.1008999 106.040089,36.2189873 C107.095471,36.3370747 107.005192,37.3312447 107.005192,37.3312447 L105.31522,42.5002405 L108.002578,42.4915774 L107.65241,44.1840568 L104.67598,44.1840568 L104.530077,44.6837759 C104.257723,45.6835231 104.05346,46.5705613 103.917283,47.344917 C103.781106,48.1192727 103.713018,48.8003764 103.713018,49.3882484 C103.713018,51.074049 104.004822,51.9169366 104.588438,51.9169366 C104.8997,51.9169366 105.424947,51.6619122 106.164195,51.1518557 C107.078528,50.52386 108.080387,49.6408494 109.169805,48.5027972 L109.169805,50.9959214 C107.885849,52.1889916 106.689453,53.049509 105.580581,53.5774996 C104.802426,53.9489472 104.131277,54.1346682 103.567115,54.1346682 C102.827867,54.1346682 102.239396,53.74818 101.801684,52.9751921 C101.363971,52.2022043 101.145118,51.1798269 101.145118,49.9080293 C101.145118,49.1055566 101.193752,48.4303802 101.291022,47.8824798 C101.388291,47.3345794 101.621734,46.3952598 101.991358,45.0644926 L102.224803,44.1840568 L100.643646,44.201711 L100.760369,43.0736954 C100.779823,42.9241437 100.920861,42.8213284 101.183489,42.7652465 C101.446116,42.7091646 102.45771,42.6716474 102.788426,42.6154136 Z M116.633574,48.5319779 L116.633574,51.0123356 C115.874873,51.771037 114.970281,52.4616395 113.919771,53.0841637 C112.674722,53.8234113 111.624228,54.1930295 110.768258,54.1930295 C110.048464,54.1930295 109.571851,53.6872362 109.338404,52.6756342 C109.221681,52.1698333 109.16332,51.372236 109.16332,50.2828186 C109.16332,49.2323089 109.328676,48.0261863 109.659392,46.6644145 C109.990108,45.3026427 110.447267,43.8825305 111.030884,42.4040354 L113.482061,42.4040354 L113.190254,43.2794558 C112.587184,45.0886669 112.159205,46.5379594 111.906304,47.6273769 C111.653404,48.7167943 111.526955,49.6602935 111.526955,50.4579027 C111.526955,51.3916891 111.711764,51.8585752 112.081388,51.8585752 C112.567735,51.8585752 113.501508,51.2749675 114.882733,50.1077345 C115.46635,49.6019336 116.049958,49.0766866 116.633574,48.5319779 Z M113.237287,37.144989 C114.190527,37.144989 114.66714,37.4173392 114.66714,37.962048 C114.66714,38.2733101 114.589326,38.6672453 114.433695,39.1438654 C114.278064,39.6204856 114.098118,39.9609234 113.893852,40.1651892 C113.689587,40.369455 113.305378,40.4715863 112.741216,40.4715863 C112.001968,40.4715863 111.63235,40.2284164 111.63235,39.7420694 C111.63235,39.0611835 111.783115,38.4581221 112.08465,37.9328673 C112.386185,37.4076125 112.770394,37.144989 113.237287,37.144989 Z M118.412126,42.4040354 L120.858288,42.4040354 C120.585933,43.1238291 120.357354,43.7657976 120.172542,44.3299602 C119.98773,44.8941228 119.807784,45.5069109 119.632699,46.1683429 C121.111194,44.7676634 122.273546,43.7901204 123.11979,43.2356847 C123.966034,42.6812491 124.710134,42.4040354 125.352112,42.4040354 C125.857913,42.4040354 126.285892,42.6569321 126.636062,43.162733 C126.986232,43.668534 127.161314,44.3007757 127.161314,45.0594772 C127.161314,45.6430936 126.830603,46.9270307 126.169171,48.9113267 C125.857909,49.8451131 125.70228,50.6232567 125.70228,51.245781 C125.70228,51.8099436 125.857909,52.0920207 126.169171,52.0920207 C126.422072,52.0920207 126.966772,51.8002168 127.803289,51.2166003 C128.47305,50.7452873 129.115128,50.2107189 129.729531,49.6128881 C130.07881,49.27303 130.471934,49.4650578 130.750538,49.9312773 C130.893724,50.1708873 130.866209,50.5596307 130.671152,50.9089819 C130.476094,51.258333 130.137744,51.5375878 130.137744,51.5375878 C130.137744,51.5375878 128.090236,53.1911576 127.380169,53.5802353 C126.670103,53.9693129 125.984364,54.1638488 125.322932,54.1638488 C124.700407,54.1638488 124.209204,53.9158156 123.849307,53.4197415 C123.48941,52.9236675 123.309465,52.257382 123.309465,51.4208651 C123.309465,50.8177947 123.455367,50.0785582 123.747175,49.2031335 C124.389153,47.2577452 124.710137,46.0613494 124.710137,45.61391 C124.710137,45.0302936 124.564235,44.7384897 124.272427,44.7384897 C123.78608,44.7384897 122.171432,46.0418803 119.428435,48.6487006 L119.107447,48.9405074 C119.087993,49.2517695 119.06854,49.5581636 119.049086,49.8596988 C119.029632,50.1612339 119.019905,50.3606333 119.019905,50.4579027 L119.019905,53.3759705 L119.107447,54.0471261 L116.772993,54.0471261 C116.695177,53.4440558 116.65627,52.8896284 116.65627,52.3838275 L116.65627,49.8742891 C116.65627,48.1039858 117.24155,45.6139261 118.412126,42.4040354 Z" id="vaikutin-copy-5" fill="#412504"></path>
            </g>
        </g>
    </g>
</svg>